<svg width="16" height="15" viewBox="0 0 16 15" fill="none" xmlns="http://www.w3.org/2000/svg">
<path d="M8 2.35701C4.36364 2.35701 1.25818 4.47466 0 7.46389C1.25818 10.4531 4.36364 12.5708 8 12.5708C11.6364 12.5708 14.7418 10.4531 16 7.46389C14.7418 4.47466 11.6364 2.35701 8 2.35701ZM8 10.8685C5.99273 10.8685 4.36364 9.34322 4.36364 7.46389C4.36364 5.58456 5.99273 4.0593 8 4.0593C10.0073 4.0593 11.6364 5.58456 11.6364 7.46389C11.6364 9.34322 10.0073 10.8685 8 10.8685ZM8 5.42114C6.79273 5.42114 5.81818 6.33356 5.81818 7.46389C5.81818 8.59421 6.79273 9.50664 8 9.50664C9.20727 9.50664 10.1818 8.59421 10.1818 7.46389C10.1818 6.33356 9.20727 5.42114 8 5.42114Z" fill="#717784"/>
<rect x="0.348082" width="18.0731" height="1.82164" rx="0.910821" transform="matrix(0.696164 -0.717883 0.696164 0.717883 0.832887 13.5832)" fill="white" stroke="#717784" stroke-width="0.5"/>
</svg>
