<svg width="16" height="16" viewBox="0 0 16 16" fill="none" xmlns="http://www.w3.org/2000/svg">
<path d="M8.01014 7.53069C9.80509 7.53069 11.2737 6.06132 11.2737 4.26535C11.2737 2.46937 9.80512 1 8.01014 1C6.21516 1 4.7466 2.46937 4.7466 4.26535C4.7466 6.06132 6.21516 7.53069 8.01014 7.53069ZM8.01014 1.81646C9.35636 1.81646 10.4577 2.91842 10.4577 4.26538C10.4577 5.61234 9.35636 6.7143 8.01014 6.7143C6.66392 6.7143 5.56257 5.61234 5.56257 4.26538C5.56257 2.91842 6.66392 1.81646 8.01014 1.81646Z" fill="#FF4F00"/>
<path d="M3.27811 15H12.7218C12.9258 15 13.1502 14.9184 13.2929 14.7551C13.4357 14.5919 13.5173 14.3674 13.4969 14.1429C13.2929 11.0205 10.927 8.67354 7.9898 8.67354C5.05264 8.67354 2.70706 11.0409 2.50309 14.1633C2.48274 14.3878 2.56427 14.6123 2.70711 14.7756C2.87016 14.9183 3.07418 14.9999 3.27808 14.9999L3.27811 15ZM8.01014 9.48985C10.4985 9.48985 12.5178 11.5103 12.7014 14.1837H3.3189C3.50244 11.5103 5.52174 9.48985 8.01014 9.48985Z" fill="#FF4F00"/>
</svg>
