<svg width="30" height="30" viewBox="0 0 30 30" fill="none" xmlns="http://www.w3.org/2000/svg">
<g clip-path="url(#clip0_46_45)">
<path d="M15 0C12.0333 0 9.13319 0.879735 6.66645 2.52796C4.19972 4.17618 2.27713 6.51886 1.14181 9.25975C0.00649929 12.0006 -0.290551 15.0166 0.288228 17.9264C0.867006 20.8361 2.29562 23.5088 4.3934 25.6066C6.49119 27.7044 9.16394 29.133 12.0737 29.7118C14.9834 30.2906 17.9994 29.9935 20.7403 28.8582C23.4811 27.7229 25.8238 25.8003 27.472 23.3336C29.1203 20.8668 30 17.9667 30 15C29.9957 11.0231 28.414 7.21026 25.6019 4.39815C22.7897 1.58604 18.9769 0.00430135 15 0ZM15 27.5C12.5277 27.5 10.111 26.7669 8.05538 25.3934C5.99976 24.0199 4.39761 22.0676 3.45151 19.7835C2.50542 17.4995 2.25788 14.9861 2.74019 12.5614C3.22251 10.1366 4.41302 7.90932 6.16117 6.16117C7.90933 4.41301 10.1366 3.2225 12.5614 2.74018C14.9861 2.25787 17.4995 2.50541 19.7836 3.45151C22.0676 4.3976 24.0199 5.99976 25.3934 8.05537C26.7669 10.111 27.5 12.5277 27.5 15C27.4964 18.3141 26.1782 21.4914 23.8348 23.8348C21.4914 26.1782 18.3141 27.4964 15 27.5Z" fill="#F5F5F5"/>
<path d="M15.8963 6.32872C15.1754 6.19739 14.4345 6.22608 13.726 6.41278C13.0175 6.59947 12.3586 6.9396 11.7961 7.4091C11.2336 7.87861 10.7811 8.466 10.4708 9.12972C10.1604 9.79344 9.99967 10.5173 10 11.25C10 11.5815 10.1317 11.8994 10.3661 12.1339C10.6005 12.3683 10.9185 12.5 11.25 12.5C11.5815 12.5 11.8995 12.3683 12.1339 12.1339C12.3683 11.8994 12.5 11.5815 12.5 11.25C12.4997 10.8822 12.5805 10.5189 12.7367 10.1859C12.893 9.85297 13.1207 9.55858 13.4038 9.32376C13.6868 9.08894 14.0182 8.91946 14.3743 8.82741C14.7304 8.73535 15.1024 8.723 15.4638 8.79122C15.9576 8.88708 16.4116 9.12796 16.7678 9.48309C17.1241 9.83822 17.3664 10.2915 17.4638 10.785C17.5621 11.303 17.4942 11.8388 17.2697 12.3159C17.0452 12.793 16.6756 13.1869 16.2138 13.4412C15.449 13.8843 14.817 14.5244 14.3837 15.2947C13.9503 16.0651 13.7315 16.9375 13.75 17.8212V18.75C13.75 19.0815 13.8817 19.3994 14.1161 19.6339C14.3505 19.8683 14.6685 20 15 20C15.3315 20 15.6495 19.8683 15.8839 19.6339C16.1183 19.3994 16.25 19.0815 16.25 18.75V17.8212C16.2343 17.3862 16.3335 16.9548 16.5376 16.5703C16.7417 16.1859 17.0434 15.862 17.4125 15.6312C18.3181 15.1338 19.0474 14.368 19.5001 13.4392C19.9528 12.5104 20.1066 11.4642 19.9403 10.4444C19.7741 9.42459 19.2961 8.48134 18.5719 7.74434C17.8477 7.00735 16.913 6.5128 15.8963 6.32872Z" fill="#F5F5F5"/>
<path d="M16.25 22.5C16.25 21.8096 15.6904 21.25 15 21.25C14.3096 21.25 13.75 21.8096 13.75 22.5C13.75 23.1904 14.3096 23.75 15 23.75C15.6904 23.75 16.25 23.1904 16.25 22.5Z" fill="#F5F5F5"/>
</g>
<defs>
<clipPath id="clip0_46_45">
<rect width="30" height="30" fill="white"/>
</clipPath>
</defs>
</svg>
