<svg width="50" height="34" viewBox="0 0 50 34" fill="none" xmlns="http://www.w3.org/2000/svg">
<path d="M40.0776 13.3463H29.1586C28.8058 13.3463 28.55 13.6138 28.55 13.9506V20.0217C28.55 20.3908 28.8058 20.6583 29.1586 20.6583H42.5825C42.8074 20.6583 42.9661 20.8244 42.9661 21.0597V26.2589C42.9661 26.4942 42.8074 26.6925 42.5825 26.6925H15.8317C15.6068 26.6925 15.448 26.8586 15.448 27.0939V33.5663C15.448 33.8016 15.6068 34 15.8317 34H40.0776C45.6033 34 50 29.1053 50 23.6385C50 17.8027 45.6033 13.4431 40.0776 13.3463ZM34.4902 6.67083V0.636635C34.4902 0.267571 34.2344 0 33.8816 0L9.92238 0C4.39672 0 0 4.89471 0 10.3615C0 16.1973 4.68778 20.5569 9.92238 20.6537H20.8105C21.1325 20.6537 21.3883 20.3862 21.3883 20.0171V13.946C21.3883 13.6092 21.1325 13.3417 20.8105 13.3417H7.5807C7.22791 13.3417 6.97213 13.0418 6.97213 12.705V7.9441C6.97213 7.57503 7.22791 7.30746 7.5807 7.30746H33.8816C34.2344 7.30746 34.4902 7.03989 34.4902 6.67083Z" fill="#FF4F00"/>
</svg>
